<svg width="32" height="29" xmlns="http://www.w3.org/2000/svg" shape-rendering="geometricPrecision" text-rendering="geometricPrecision" image-rendering="optimizeQuality" fill-rule="evenodd" clip-rule="evenodd">
 <title>clip</title>

 <g>
  <title>Layer 1</title>
  <path fill-rule="nonzero" d="m22.31412,8.92825c-0.19331,0.09742 -0.38909,0.20427 -0.58179,0.3174c-0.5787,0.34506 -1.15061,0.76742 -1.73425,1.25202l-1.24572,-1.45126c0.42986,-0.4054 0.89553,-0.77497 1.38962,-1.1018c0.39342,-0.26209 0.80536,-0.49528 1.23028,-0.69452c0.16984,-0.08674 0.33969,-0.16782 0.51447,-0.24324c-0.8208,-1.48017 -2.00229,-2.54048 -3.34065,-3.19478c-2.65943,-1.29601 -5.97105,-1.01443 -8.31364,0.83719c-1.34577,1.06094 -2.3673,2.64796 -2.76133,4.751l-0.12352,0.65681l-0.64355,0.11565c-0.63058,0.11251 -1.19322,0.26712 -1.68793,0.46322c-0.47865,0.18919 -0.90542,0.42237 -1.27845,0.69703c-0.29892,0.21998 -0.55647,0.46636 -0.77448,0.73286c-0.67752,0.82525 -0.99126,1.85917 -0.98385,2.90754c0.00803,1.0622 0.34771,2.13635 0.97582,3.01879c0.23407,0.32746 0.50397,0.62915 0.81277,0.89062c0.31436,0.26398 0.6664,0.48396 1.06291,0.64989c0.39342,0.16467 0.82883,0.28221 1.30995,0.35072l0.70037,0c-0.01915,0.24135 -0.02841,0.48585 -0.02841,0.7316c0,0.4054 0.02532,0.80451 0.07535,1.19545l-0.77819,0l-0.11858,-0.01006c-0.68678,-0.08925 -1.30995,-0.25455 -1.87568,-0.49213c-0.58426,-0.24701 -1.10182,-0.56378 -1.55699,-0.95095c-0.43233,-0.36706 -0.8103,-0.78314 -1.13208,-1.2363c-0.85971,-1.20425 -1.32292,-2.67625 -1.33342,-4.14321c-0.00988,-1.48205 0.44283,-2.95594 1.42112,-4.15076c0.31622,-0.38717 0.68863,-0.74354 1.11602,-1.0578c0.49718,-0.36643 1.06538,-0.67566 1.70954,-0.92896c0.44221,-0.17599 0.9153,-0.32306 1.41494,-0.44059c0.56635,-2.28845 1.77316,-4.05082 3.32459,-5.27455c2.90709,-2.29222 6.98578,-2.65802 10.28567,-1.0446c1.80342,0.88307 3.37833,2.35193 4.40047,4.41788c0.41133,-0.06537 0.82327,-0.09931 1.23213,-0.09428c4.27756,0.03268 6.76036,3.74159 6.71651,7.79618c-0.01791,1.65238 -0.45518,3.29722 -1.35133,4.50713c-0.58364,0.78817 -1.3328,1.4324 -2.23081,1.94276c-0.86404,0.49276 -1.87321,0.86736 -3.00529,1.13448l-0.20628,0.02514a9.19707,9.35957 0 0 0 0.04323,-1.96539c0.84551,-0.21935 1.59652,-0.50722 2.23945,-0.87239c0.6769,-0.38528 1.23028,-0.85416 1.64408,-1.41669c0.64355,-0.87239 0.96038,-2.10555 0.97274,-3.37076c0.0352,-2.96788 -1.63605,-5.83771 -4.83527,-5.85782c-0.88256,-0.00817 -1.80095,0.2093 -2.67054,0.6015zm-6.41017,4.48136c3.91009,0 7.0809,3.2262 7.0809,7.206c0,3.9798 -3.17081,7.20537 -7.0809,7.20537c-3.9107,0 -7.0809,-3.22557 -7.0809,-7.20537s3.17019,-7.206 7.0809,-7.206zm2.63164,7.74024c0.5225,-0.34317 0.52126,-0.72594 0,-1.03015l-3.59696,-2.58448c-0.42615,-0.27215 -0.87021,-0.11188 -0.85848,0.45379l0.01668,5.20353c0.03644,0.61407 0.38107,0.78188 0.88812,0.49842l3.55064,-2.54111z" id="svg_1" fill="#5755d9"/>
 </g>
</svg>