<svg width="212" height="170" xmlns="http://www.w3.org/2000/svg" fill-rule="evenodd" image-rendering="optimizeQuality" shape-rendering="geometricPrecision">
  <path fill="#5755d9" d="m15.28187,12.24603l150.14983,0c6.47097,0 11.757,4.84175 11.757,10.76884l0,33.40659c-0.89573,-0.40471 -1.7995,-0.78734 -2.71933,-1.15157l-0.81138,-0.33848c-1.43398,-0.54083 -2.88402,-1.03752 -4.35415,-1.47901l0,-11.05949l0.05623,0l-157.46833,0l0,81.53341c0,1.65561 1.44201,2.97642 3.24954,2.97642l77.53919,0c0.2169,0.52244 0.44184,1.0412 0.67883,1.55996c0.7913,1.75863 1.69908,3.4915 2.70327,5.18391l-80.7807,0c-6.47097,0 -11.757,-4.85279 -11.757,-10.76884l0,-99.86288c0,-5.92709 5.28603,-10.76884 11.757,-10.76884zm134.84604,51.64408c12.48002,0 24.40171,4.52166 33.22649,12.60841c12.18278,11.15883 16.71768,27.61562 11.80922,42.72953c-1.13674,3.50622 -2.75147,6.8248 -4.77189,9.89321l18.19584,18.16759c0.8395,0.83516 0.78326,2.14126 -0.13255,2.9102l-13.35968,11.17723c-0.9118,0.76526 -2.32971,0.70639 -3.16921,-0.12877l-17.40856,-17.53846c-7.37072,4.11328 -15.75366,6.2619 -24.38966,6.2619c-12.476,0 -24.40171,-4.52534 -33.22247,-12.60841a47.06818,43.11216 0 0 1 -10.19851,-13.97705c-7.28235,-16.0668 -3.14109,-34.66485 10.20252,-46.88327a46.92117,42.9775 0 0 1 15.24755,-9.34501c5.5431,-2.10815 11.61642,-3.26708 17.9709,-3.26708zm28.49075,16.93876c-11.49993,-10.53338 -28.93259,-13.70112 -43.90701,-8.02052c-26.88004,10.1949 -33.05779,41.93851 -13.08655,60.21648c11.52002,10.52602 28.92054,13.70847 43.91504,8.0242c15.07885,-5.73578 24.8797,-19.16832 24.8797,-34.12034c0,-5.01099 -1.0805,-9.78283 -3.03666,-14.11686a40.57432,37.16409 0 0 0 -8.76453,-11.98296zm-11.33525,35.93416l-6.58746,6.00068l-10.63633,-9.74604l-10.5801,9.69085l-6.35449,-5.83512l10.57206,-9.6835l-10.78495,-9.87481l6.58746,-6.00068l10.76487,9.86377l10.64838,-9.7534l6.35047,5.83144l-10.64035,9.74604l10.66043,9.76076zm-13.04638,-92.41263c3.20938,0 5.80821,2.3804 5.80821,5.32004c0,2.93595 -2.59883,5.32004 -5.80821,5.32004c-3.20536,0 -5.80821,-2.38408 -5.80821,-5.32004c0.01607,-2.93963 2.6149,-5.32004 5.80821,-5.32004zm-39.34399,0c3.20938,0 5.80821,2.3804 5.80821,5.32004c0,2.93595 -2.59883,5.32004 -5.80821,5.32004c-3.20938,0 -5.80821,-2.38408 -5.80821,-5.32004c0,-2.93963 2.59883,-5.32004 5.80821,-5.32004zm19.674,0c3.20536,0 5.80419,2.3804 5.80419,5.32004c0,2.93595 -2.59883,5.32004 -5.80419,5.32004c-3.20938,0 -5.81223,-2.38408 -5.81223,-5.32004c0,-2.93963 2.60285,-5.32004 5.81223,-5.32004z"/>
</svg>
